<?xml version="1.0" encoding="UTF-8" standalone="no"?>
<!-- Created with Inkscape (http://www.inkscape.org/) -->

<svg
   width="600px"
   height="100px"
   viewBox="0 0 600 100"
   id="SVGRoot"
   version="1.1"
   enable-background="new"
   inkscape:version="1.4 (86a8ad7, 2024-10-11)"
   sodipodi:docname="dirt.svg"
   xmlns:inkscape="http://www.inkscape.org/namespaces/inkscape"
   xmlns:sodipodi="http://sodipodi.sourceforge.net/DTD/sodipodi-0.dtd"
   xmlns:xlink="http://www.w3.org/1999/xlink"
   xmlns="http://www.w3.org/2000/svg"
   xmlns:svg="http://www.w3.org/2000/svg">
  <defs
     id="defs4787">
    <linearGradient
       id="linearGradient78"
       inkscape:collect="always">
      <stop
         style="stop-color:#4b2e1f;stop-opacity:1;"
         offset="0"
         id="stop79" />
      <stop
         style="stop-color:#6b452d;stop-opacity:1;"
         offset="0.4074074"
         id="stop80" />
      <stop
         style="stop-color:#784421;stop-opacity:1;"
         offset="1"
         id="stop78" />
    </linearGradient>
    <clipPath
       clipPathUnits="userSpaceOnUse"
       id="patternClipPath">
      <rect
         y="0"
         x="0"
         height="100"
         width="600"
         id="clipPathRect"
         style="color:#000000;display:inline;overflow:visible;visibility:visible;opacity:1;fill:#ffff00;fill-opacity:1;fill-rule:nonzero;stroke:none;stroke-width:20;stroke-linecap:square;stroke-linejoin:miter;stroke-miterlimit:4;stroke-dasharray:none;stroke-dashoffset:1.09889996;stroke-opacity:1;marker:none;enable-background:accumulate" />
    </clipPath>
    <marker
       inkscape:stockid="Arrow2Mend"
       orient="auto"
       refY="0.0"
       refX="0.0"
       id="Arrow2Mend"
       style="overflow:visible;"
       inkscape:isstock="true">
      <path
         id="path19572"
         style="fill-rule:evenodd;stroke-width:0.625;stroke-linejoin:round;stroke:#000000;stroke-opacity:1;fill:#000000;fill-opacity:1"
         d="M 8.7185878,4.0337352 L -2.2072895,0.016013256 L 8.7185884,-4.0017078 C 6.9730900,-1.6296469 6.9831476,1.6157441 8.7185878,4.0337352 z "
         transform="scale(0.6) rotate(180) translate(0,0)" />
    </marker>
    <clipPath
       clipPathUnits="userSpaceOnUse"
       id="patternClipPath-0">
      <rect
         y="0"
         x="0"
         height="100"
         width="600"
         id="clipPathRect-9"
         style="color:#000000;display:inline;overflow:visible;visibility:visible;opacity:1;fill:#ffff00;fill-opacity:1;fill-rule:nonzero;stroke:none;stroke-width:20;stroke-linecap:square;stroke-linejoin:miter;stroke-miterlimit:4;stroke-dasharray:none;stroke-dashoffset:1.0989;stroke-opacity:1;marker:none;enable-background:accumulate" />
    </clipPath>
    <linearGradient
       inkscape:collect="always"
       xlink:href="#linearGradient78"
       id="linearGradient79"
       x1="312.5"
       y1="100"
       x2="315"
       y2="59"
       gradientUnits="userSpaceOnUse" />
  </defs>
  <sodipodi:namedview
     id="base"
     pagecolor="#ffffff"
     bordercolor="#666666"
     borderopacity="1.0"
     inkscape:pageopacity="0"
     inkscape:pageshadow="2"
     inkscape:zoom="4"
     inkscape:cx="256.25"
     inkscape:cy="46.375"
     inkscape:document-units="px"
     inkscape:current-layer="designTop"
     showgrid="false"
     inkscape:pagecheckerboard="true"
     inkscape:window-width="2400"
     inkscape:window-height="1261"
     inkscape:window-x="2551"
     inkscape:window-y="-9"
     inkscape:window-maximized="1"
     inkscape:blackoutopacity="0.0"
     showborder="true"
     inkscape:showpageshadow="true"
     borderlayer="false"
     inkscape:deskcolor="#505050" />
  <g
     inkscape:groupmode="layer"
     id="patternLayer"
     inkscape:label="Pattern"
     style="display:inline">
    <g
       id="g8891"
       sodipodi:insensitive="true">
      <use
         x="0"
         y="0"
         xlink:href="#fullPattern"
         id="fullPatternClone"
         transform="translate(1200, -100)"
         width="600"
         height="100"
         inkscape:tile-cx="300.0"
         inkscape:tile-cy="50.0"
         inkscape:tile-w="600"
         inkscape:tile-h="100"
         inkscape:tile-x0="600"
         inkscape:tile-y0="100" />
      <use
         height="100%"
         width="100%"
         x="0"
         y="0"
         inkscape:tiled-clone-of="#fullPatternClone"
         xlink:href="#fullPatternClone"
         transform="translate(0, 100)"
         id="clonePreview1" />
      <use
         height="100%"
         width="100%"
         x="0"
         y="0"
         inkscape:tiled-clone-of="#fullPatternClone"
         xlink:href="#fullPatternClone"
         transform="translate(0, 200)"
         id="clonePreview2" />
      <use
         height="100%"
         width="100%"
         x="0"
         y="0"
         inkscape:tiled-clone-of="#fullPatternClone"
         xlink:href="#fullPatternClone"
         transform="translate(600, 0)"
         id="clonePreview3" />
      <use
         height="100%"
         width="100%"
         x="0"
         y="0"
         inkscape:tiled-clone-of="#fullPatternClone"
         xlink:href="#fullPatternClone"
         transform="translate(600, 100)"
         id="clonePreview4" />
      <use
         height="100%"
         width="100%"
         x="0"
         y="0"
         inkscape:tiled-clone-of="#fullPatternClone"
         xlink:href="#fullPatternClone"
         transform="translate(600, 200)"
         id="clonePreview5" />
      <use
         height="100%"
         width="100%"
         x="0"
         y="0"
         inkscape:tiled-clone-of="#fullPatternClone"
         xlink:href="#fullPatternClone"
         transform="translate(1200, 0)"
         id="clonePreview6" />
      <use
         height="100%"
         width="100%"
         x="0"
         y="0"
         inkscape:tiled-clone-of="#fullPatternClone"
         xlink:href="#fullPatternClone"
         transform="translate(1200, 100)"
         id="clonePreview7" />
      <use
         height="100%"
         width="100%"
         x="0"
         y="0"
         inkscape:tiled-clone-of="#fullPatternClone"
         xlink:href="#fullPatternClone"
         transform="translate(1200, 200)"
         id="clonePreview8" />
    </g>
    <use
       style="display:inline;opacity:0.3"
       height="100%"
       width="100%"
       id="phantomBottom"
       xlink:href="#designBottom"
       y="0"
       x="0"
       sodipodi:insensitive="true" />
    <use
       style="display:inline;opacity:0.3"
       height="100%"
       width="100%"
       id="phantomTop"
       xlink:href="#designTop"
       y="0"
       x="0"
       sodipodi:insensitive="true" />
    <g
       id="textPreview"
       sodipodi:insensitive="true"
       transform="translate(1200, 0)">
      <path
         d="m -29.56541,100 v -7.16704 h 2.00731 v 4.51126 h 1.91761 v -4.24223 h 2.00731 v 4.24223 h 4.36647 V 100 Z"
         style="font-style:normal;font-variant:normal;font-weight:bold;font-stretch:normal;font-size:medium;line-height:125%;font-family:sans-serif;-inkscape-font-specification:'sans-serif Bold';letter-spacing:0px;word-spacing:0px;fill:#000000;fill-opacity:1;stroke:none;stroke-width:1px;stroke-linecap:butt;stroke-linejoin:miter;stroke-opacity:1"
         id="path9845"
         inkscape:connector-curvature="0" />
      <path
         d="m -22.7433,87.81814 q 0,0.77256 0.26214,1.16575 0.26214,0.38628 0.77256,0.38628 0.46906,0 0.73808,-0.3104 0.26214,-0.31731 0.26214,-0.87604 0,-0.6967 -0.49667,-1.17266 -0.50355,-0.47596 -1.25547,-0.47596 h -0.28278 z m -0.93124,-3.7732 h 4.40783 v 2.49017 h -1.14504 q 0.70359,0.49666 1.02773,1.11747 0.31735,0.62082 0.31735,1.51066 0,1.20024 -0.69671,1.95213 -0.70359,0.74498 -1.82103,0.74498 -1.35893,0 -1.99355,-0.93123 -0.63462,-0.93812 -0.63462,-2.93854 v -1.45547 h -0.19316 q -0.58628,0 -0.8553,0.46216 -0.2759,0.46217 -0.2759,1.44168 0,0.79327 0.15859,1.47617 0.15868,0.6829 0.47603,1.26923 h -1.88321 q -0.19317,-0.79327 -0.28966,-1.59344 -0.10355,-0.80016 -0.10355,-1.60033 0,-2.09008 0.82778,-3.01441 0.8209,-0.93123 2.67642,-0.93123 z"
         style="font-style:normal;font-variant:normal;font-weight:bold;font-stretch:normal;font-size:medium;line-height:125%;font-family:sans-serif;-inkscape-font-specification:'sans-serif Bold';letter-spacing:0px;word-spacing:0px;fill:#000000;fill-opacity:1;stroke:none;stroke-width:1px;stroke-linecap:butt;stroke-linejoin:miter;stroke-opacity:1"
         id="path9847"
         inkscape:connector-curvature="0" />
      <path
         d="m -26.75105,75.72598 h 1.87625 q -0.33111,0.79327 -0.49658,1.53136 -0.16556,0.73808 -0.16556,1.39338 0,0.7036 0.17932,1.04849 0.17243,0.338 0.53803,0.338 0.29663,0 0.45531,-0.25522 0.15858,-0.26212 0.23453,-0.93122 l 0.0624,-0.43458 q 0.2415,-1.89694 0.79329,-2.55225 0.55189,-0.65531 1.73142,-0.65531 1.23474,0 1.85551,0.91054 0.62086,0.91053 0.62086,2.7178 0,0.76568 -0.12419,1.58654 -0.11722,0.81396 -0.35872,1.67621 h -1.87624 q 0.35872,-0.73809 0.53803,-1.51067 0.17941,-0.77947 0.17941,-1.57963 0,-0.72429 -0.20005,-1.08988 -0.20004,-0.3656 -0.59325,-0.3656 -0.33111,0 -0.4897,0.25524 -0.16555,0.24832 -0.25525,1.00019 l -0.055,0.43458 q -0.20692,1.64862 -0.76568,2.31082 -0.55868,0.66221 -1.69684,0.66221 -1.22787,0 -1.82112,-0.84156 -0.59325,-0.84155 -0.59325,-2.57984 0,-0.6829 0.10355,-1.43477 0.10346,-0.75188 0.32415,-1.63483 z"
         style="font-style:normal;font-variant:normal;font-weight:bold;font-stretch:normal;font-size:medium;line-height:125%;font-family:sans-serif;-inkscape-font-specification:'sans-serif Bold';letter-spacing:0px;word-spacing:0px;fill:#000000;fill-opacity:1;stroke:none;stroke-width:1px;stroke-linecap:butt;stroke-linejoin:miter;stroke-opacity:1"
         id="path9849"
         inkscape:connector-curvature="0" />
      <path
         d="m -29.18596,70.67666 h 2.19351 v -2.54535 h 1.7659 v 2.54535 h 3.27654 q 0.53804,0 0.7312,-0.21383 0.1862,-0.21384 0.1862,-0.84846 v -1.26922 h 1.7659 v 2.11768 q 0,1.46237 -0.60701,2.07628 -0.61398,0.60703 -2.07629,0.60703 h -3.27654 v 1.22784 h -1.7659 v -1.22784 h -2.19351 z"
         style="font-style:normal;font-variant:normal;font-weight:bold;font-stretch:normal;font-size:medium;line-height:125%;font-family:sans-serif;-inkscape-font-specification:'sans-serif Bold';letter-spacing:0px;word-spacing:0px;fill:#000000;fill-opacity:1;stroke:none;stroke-width:1px;stroke-linecap:butt;stroke-linejoin:miter;stroke-opacity:1"
         id="path9851"
         inkscape:connector-curvature="0" />
      <path
         d="m -20.38415,59.23292 h 4.05599 v 2.46948 h -10.66429 v -2.46948 h 1.13128 q -0.67598,-0.51044 -0.99334,-1.13127 -0.32423,-0.62081 -0.32423,-1.42788 0,-1.42787 1.13826,-2.3453 1.13119,-0.91744 2.91782,-0.91744 1.78654,0 2.92471,0.91744 1.13128,0.91743 1.13128,2.3453 0,0.80707 -0.31735,1.42788 -0.32414,0.62083 -1.00013,1.13127 z m -5.00108,-1.64171 q 0,0.79327 0.58637,1.22093 0.5794,0.42078 1.6762,0.42078 1.09671,0 1.68308,-0.42078 0.5794,-0.42766 0.5794,-1.22093 0,-0.79327 -0.5794,-1.20715 -0.5794,-0.42078 -1.68308,-0.42078 -1.10368,0 -1.68317,0.42078 -0.5794,0.41388 -0.5794,1.20715 z"
         style="font-style:normal;font-variant:normal;font-weight:bold;font-stretch:normal;font-size:medium;line-height:125%;font-family:sans-serif;-inkscape-font-specification:'sans-serif Bold';letter-spacing:0px;word-spacing:0px;fill:#000000;fill-opacity:1;stroke:none;stroke-width:1px;stroke-linecap:butt;stroke-linejoin:miter;stroke-opacity:1"
         id="path9853"
         inkscape:connector-curvature="0" />
      <path
         d="m -24.88856,45.83706 q -0.1518,0.3242 -0.22077,0.6484 -0.0761,0.31731 -0.0761,0.64151 0,0.95193 0.61389,1.46927 0.6071,0.51045 1.74526,0.51045 h 3.55932 v 2.46948 h -7.72574 v -2.46948 h 1.26923 q -0.7588,-0.47595 -1.10367,-1.08988 -0.35185,-0.62081 -0.35185,-1.48306 0,-0.12416 0.0138,-0.26902 0.009,-0.14486 0.0413,-0.42078 l 2.23496,-0.007 z"
         style="font-style:normal;font-variant:normal;font-weight:bold;font-stretch:normal;font-size:medium;line-height:125%;font-family:sans-serif;-inkscape-font-specification:'sans-serif Bold';letter-spacing:0px;word-spacing:0px;fill:#000000;fill-opacity:1;stroke:none;stroke-width:1px;stroke-linecap:butt;stroke-linejoin:miter;stroke-opacity:1"
         id="path9855"
         inkscape:connector-curvature="0" />
      <path
         d="m -23.15027,36.88348 h 0.7036 v 5.77361 q 0.86914,-0.0897 1.30372,-0.62772 0.43457,-0.53804 0.43457,-1.50375 0,-0.77948 -0.22765,-1.59344 -0.23453,-0.82086 -0.70359,-1.6831 h 1.90385 q 0.33111,0.87604 0.49667,1.75208 0.17243,0.87604 0.17243,1.75209 0,2.09698 -1.06231,3.26274 -1.06919,1.15886 -2.99368,1.15886 -1.89009,0 -2.97304,-1.13817 -1.08304,-1.14506 -1.08304,-3.14547 0,-1.82107 1.0968,-2.91095 1.0968,-1.09678 2.93167,-1.09678 z m -0.8209,2.53846 q -0.70359,0 -1.13119,0.41388 -0.43458,0.40698 -0.43458,1.06918 0,0.71739 0.40697,1.16576 0.40009,0.44836 1.1588,0.55873 z"
         style="font-style:normal;font-variant:normal;font-weight:bold;font-stretch:normal;font-size:medium;line-height:125%;font-family:sans-serif;-inkscape-font-specification:'sans-serif Bold';letter-spacing:0px;word-spacing:0px;fill:#000000;fill-opacity:1;stroke:none;stroke-width:1px;stroke-linecap:butt;stroke-linejoin:miter;stroke-opacity:1"
         id="path9857"
         inkscape:connector-curvature="0" />
      <path
         d="m -26.99245,35.99364 v -2.46947 l 5.33907,-1.92454 -5.33907,-1.91764 v -2.47637 l 7.72574,3.04201 v 2.7109 z"
         style="font-style:normal;font-variant:normal;font-weight:bold;font-stretch:normal;font-size:medium;line-height:125%;font-family:sans-serif;-inkscape-font-specification:'sans-serif Bold';letter-spacing:0px;word-spacing:0px;fill:#000000;fill-opacity:1;stroke:none;stroke-width:1px;stroke-linecap:butt;stroke-linejoin:miter;stroke-opacity:1"
         id="path9859"
         inkscape:connector-curvature="0" />
      <path
         d="m -26.99245,25.80534 v -2.46948 h 7.72574 v 2.46948 z m -3.00753,0 v -2.46948 h 2.01419 v 2.46948 z"
         style="font-style:normal;font-variant:normal;font-weight:bold;font-stretch:normal;font-size:medium;line-height:125%;font-family:sans-serif;-inkscape-font-specification:'sans-serif Bold';letter-spacing:0px;word-spacing:0px;fill:#000000;fill-opacity:1;stroke:none;stroke-width:1px;stroke-linecap:butt;stroke-linejoin:miter;stroke-opacity:1"
         id="path9861"
         inkscape:connector-curvature="0" />
      <path
         d="m -23.15027,13.23722 h 0.7036 v 5.77361 q 0.86914,-0.0897 1.30372,-0.62772 0.43457,-0.53805 0.43457,-1.50376 0,-0.77947 -0.22765,-1.59344 -0.23453,-0.82085 -0.70359,-1.6831 h 1.90385 q 0.33111,0.87604 0.49667,1.75208 0.17243,0.87605 0.17243,1.75209 0,2.09698 -1.06231,3.26275 -1.06919,1.15885 -2.99368,1.15885 -1.89009,0 -2.97304,-1.13816 -1.08304,-1.14506 -1.08304,-3.14548 0,-1.82106 1.0968,-2.91094 1.0968,-1.09678 2.93167,-1.09678 z m -0.8209,2.53845 q -0.70359,0 -1.13119,0.41389 -0.43458,0.40697 -0.43458,1.06918 0,0.71738 0.40697,1.16575 0.40009,0.44837 1.1588,0.55874 z"
         style="font-style:normal;font-variant:normal;font-weight:bold;font-stretch:normal;font-size:medium;line-height:125%;font-family:sans-serif;-inkscape-font-specification:'sans-serif Bold';letter-spacing:0px;word-spacing:0px;fill:#000000;fill-opacity:1;stroke:none;stroke-width:1px;stroke-linecap:butt;stroke-linejoin:miter;stroke-opacity:1"
         id="path9863"
         inkscape:connector-curvature="0" />
      <path
         d="M -26.99245,12.06456 V 9.664065 l 5.32522,-1.29682 -5.32522,-1.303718 V 5.001033 l 5.2701,-1.29682 -5.2701,-1.303717 V 1.267492e-7 L -19.26671,2.034903 v 2.697109 l -5.31147,1.303717 5.31147,1.296819 v 2.697112 z"
         style="font-style:normal;font-variant:normal;font-weight:bold;font-stretch:normal;font-size:medium;line-height:125%;font-family:sans-serif;-inkscape-font-specification:'sans-serif Bold';letter-spacing:0px;word-spacing:0px;fill:#000000;fill-opacity:1;stroke:none;stroke-width:1px;stroke-linecap:butt;stroke-linejoin:miter;stroke-opacity:1"
         id="path9865"
         inkscape:connector-curvature="0" />
    </g>
    <g
       inkscape:label="Helper Layer (don't use)"
       clip-path="url(#patternClipPath)"
       id="fullPattern"
       style="display:inline;fill:url(#linearGradient79);fill-opacity:1">
      <g
         inkscape:groupmode="layer"
         id="designBottom"
         inkscape:label="Pattern Background"
         transform="scale(6,1)"
         style="display:inline;fill:url(#linearGradient79);fill-opacity:1.0" />
      <g
         inkscape:groupmode="layer"
         id="designTop"
         inkscape:label="Pattern Foreground"
         transform="scale(6,1)"
         style="display:inline;fill:url(#linearGradient79);fill-opacity:1.0">
        <path
           id="rect1"
           style="display:inline;stroke-width:0.444573;fill:url(#linearGradient79);fill-opacity:1.0"
           d="m 0,50 h 100 v 50 H 0 Z" />
        <rect
           style="display:inline;font-variation-settings:normal;opacity:0.437269;vector-effect:none;fill:#a05a2c;fill-opacity:1;stroke-width:0.627283;stroke-linecap:butt;stroke-linejoin:miter;stroke-miterlimit:4;stroke-dasharray:none;stroke-dashoffset:0;stroke-opacity:1;-inkscape-stroke:none"
           id="rect80"
           width="600"
           height="5.8388329"
           x="0"
           y="60.161167"
           transform="scale(0.16666667,1)" />
        <rect
           style="font-variation-settings:normal;display:inline;vector-effect:none;fill:#217821;fill-opacity:1;stroke-width:0.408248;stroke-linecap:butt;stroke-linejoin:miter;stroke-miterlimit:4;stroke-dasharray:none;stroke-dashoffset:0;stroke-opacity:1;-inkscape-stroke:none;stop-color:#000000"
           id="rect69-5"
           width="100"
           height="11"
           x="-2.2980983"
           y="49.161167" />
      </g>
      <g
         id="designBottomGenerator"
         sodipodi:insensitive="true"
         style="fill:url(#linearGradient79);fill-opacity:1.0">
        <g
           inkscape:groupmode="layer"
           id="bottom1"
           inkscape:label="Pattern Background"
           transform="matrix(6,0,0,1,-600,-100)"
           style="display:inline;fill:url(#linearGradient79);fill-opacity:1.0" />
        <g
           inkscape:groupmode="layer"
           id="bottom2"
           inkscape:label="Pattern Background"
           transform="matrix(6,0,0,1,0,-100)"
           style="display:inline;fill:url(#linearGradient79);fill-opacity:1.0" />
        <g
           inkscape:groupmode="layer"
           id="bottom3"
           inkscape:label="Pattern Background"
           transform="matrix(6,0,0,1,600,-100)"
           style="display:inline;fill:url(#linearGradient79);fill-opacity:1.0" />
        <g
           inkscape:groupmode="layer"
           id="bottom4"
           inkscape:label="Pattern Background"
           transform="matrix(6,0,0,1,-600,0)"
           style="display:inline;fill:url(#linearGradient79);fill-opacity:1.0" />
        <g
           inkscape:groupmode="layer"
           id="bottom5"
           inkscape:label="Pattern Background"
           transform="scale(6,1)"
           style="display:inline;fill:url(#linearGradient79);fill-opacity:1.0" />
        <g
           inkscape:groupmode="layer"
           id="bottom6"
           inkscape:label="Pattern Background"
           transform="matrix(6,0,0,1,600,0)"
           style="display:inline;fill:url(#linearGradient79);fill-opacity:1.0" />
        <g
           inkscape:groupmode="layer"
           id="bottom7"
           inkscape:label="Pattern Background"
           transform="matrix(6,0,0,1,-600,100)"
           style="display:inline;fill:url(#linearGradient79);fill-opacity:1.0" />
        <g
           inkscape:groupmode="layer"
           id="bottom8"
           inkscape:label="Pattern Background"
           transform="matrix(6,0,0,1,0,100)"
           style="display:inline;fill:url(#linearGradient79);fill-opacity:1.0" />
        <g
           inkscape:groupmode="layer"
           id="bottom9"
           inkscape:label="Pattern Background"
           transform="matrix(6,0,0,1,600,100)"
           style="display:inline;fill:url(#linearGradient79);fill-opacity:1.0" />
      </g>
      <g
         id="designTopGenerator"
         sodipodi:insensitive="true"
         style="fill:url(#linearGradient79);fill-opacity:1.0">
        <g
           inkscape:groupmode="layer"
           id="top1"
           inkscape:label="Pattern Foreground"
           transform="matrix(6,0,0,1,-600,-100)"
           style="display:inline;fill:url(#linearGradient79);fill-opacity:1.0">
          <path
             id="path70"
             style="display:inline;stroke-width:0.444573;fill:url(#linearGradient79);fill-opacity:1.0"
             d="m 0,50 h 100 v 50 H 0 Z" />
        </g>
        <g
           inkscape:groupmode="layer"
           id="top2"
           inkscape:label="Pattern Foreground"
           transform="matrix(6,0,0,1,0,-100)"
           style="display:inline;fill:url(#linearGradient79);fill-opacity:1.0">
          <path
             id="path71"
             style="display:inline;stroke-width:0.444573;fill:url(#linearGradient79);fill-opacity:1.0"
             d="m 0,50 h 100 v 50 H 0 Z" />
        </g>
        <g
           inkscape:groupmode="layer"
           id="top3"
           inkscape:label="Pattern Foreground"
           transform="matrix(6,0,0,1,600,-100)"
           style="display:inline;fill:url(#linearGradient79);fill-opacity:1.0">
          <path
             id="path72"
             style="display:inline;stroke-width:0.444573;fill:url(#linearGradient79);fill-opacity:1.0"
             d="m 0,50 h 100 v 50 H 0 Z" />
        </g>
        <g
           inkscape:groupmode="layer"
           id="top4"
           inkscape:label="Pattern Foreground"
           transform="matrix(6,0,0,1,-600,0)"
           style="display:inline;fill:url(#linearGradient79);fill-opacity:1.0">
          <path
             id="path73"
             style="display:inline;stroke-width:0.444573;fill:url(#linearGradient79);fill-opacity:1.0"
             d="m 0,50 h 100 v 50 H 0 Z" />
        </g>
        <g
           inkscape:groupmode="layer"
           id="top5"
           inkscape:label="Pattern Foreground"
           transform="scale(6,1)"
           style="display:inline;fill:url(#linearGradient79);fill-opacity:1.0">
          <path
             id="path74"
             style="display:inline;stroke-width:0.444573;fill:url(#linearGradient79);fill-opacity:1.0"
             d="m 0,50 h 100 v 50 H 0 Z" />
        </g>
        <g
           inkscape:groupmode="layer"
           id="top6"
           inkscape:label="Pattern Foreground"
           transform="matrix(6,0,0,1,600,0)"
           style="display:inline;fill:url(#linearGradient79);fill-opacity:1.0">
          <path
             id="path75"
             style="display:inline;stroke-width:0.444573;fill:url(#linearGradient79);fill-opacity:1.0"
             d="m 0,50 h 100 v 50 H 0 Z" />
        </g>
        <g
           inkscape:groupmode="layer"
           id="top7"
           inkscape:label="Pattern Foreground"
           transform="matrix(6,0,0,1,-600,100)"
           style="display:inline;fill:url(#linearGradient79);fill-opacity:1.0">
          <path
             id="path76"
             style="display:inline;stroke-width:0.444573;fill:url(#linearGradient79);fill-opacity:1.0"
             d="m 0,50 h 100 v 50 H 0 Z" />
        </g>
        <g
           inkscape:groupmode="layer"
           id="top8"
           inkscape:label="Pattern Foreground"
           transform="matrix(6,0,0,1,0,100)"
           style="display:inline;fill:url(#linearGradient79);fill-opacity:1.0">
          <path
             id="path77"
             style="display:inline;stroke-width:0.444573;fill:url(#linearGradient79);fill-opacity:1.0"
             d="m 0,50 h 100 v 50 H 0 Z" />
        </g>
        <g
           inkscape:groupmode="layer"
           id="top9"
           inkscape:label="Pattern Foreground"
           transform="matrix(6,0,0,1,600,100)"
           style="display:inline;fill:url(#linearGradient79);fill-opacity:1.0">
          <path
             id="path78"
             style="display:inline;stroke-width:0.444573;fill:url(#linearGradient79);fill-opacity:1.0"
             d="m 0,50 h 100 v 50 H 0 Z" />
        </g>
      </g>
    </g>
  </g>
  <inkscape:_templateinfo
     id="_templateinfo10">
    <inkscape:_name
       id="_name12">Seamless Pattern</inkscape:_name>
    <inkscape:_shortdesc
       id="_shortdesc14">Seamless Pattern</inkscape:_shortdesc>
    <inkscape:_keywords
       id="_keywords16">Seamless Pattern</inkscape:_keywords>
  </inkscape:_templateinfo>
</svg>
