<?xml version="1.0" encoding="UTF-8" standalone="no"?>
<!-- Created with Inkscape (http://www.inkscape.org/) -->

<svg
   width="200"
   height="200"
   viewBox="0 0 52.916665 52.916666"
   version="1.1"
   id="svg1"
   inkscape:version="1.4 (86a8ad7, 2024-10-11)"
   sodipodi:docname="knife.svg"
   xmlns:inkscape="http://www.inkscape.org/namespaces/inkscape"
   xmlns:sodipodi="http://sodipodi.sourceforge.net/DTD/sodipodi-0.dtd"
   xmlns:xlink="http://www.w3.org/1999/xlink"
   xmlns="http://www.w3.org/2000/svg"
   xmlns:svg="http://www.w3.org/2000/svg">
  <sodipodi:namedview
     id="namedview1"
     pagecolor="#505050"
     bordercolor="#eeeeee"
     borderopacity="1"
     inkscape:showpageshadow="0"
     inkscape:pageopacity="0"
     inkscape:pagecheckerboard="0"
     inkscape:deskcolor="#505050"
     inkscape:document-units="px"
     inkscape:zoom="11.313709"
     inkscape:cx="40.305086"
     inkscape:cy="112.47417"
     inkscape:window-width="2560"
     inkscape:window-height="1351"
     inkscape:window-x="-9"
     inkscape:window-y="-9"
     inkscape:window-maximized="1"
     inkscape:current-layer="layer1" />
  <defs
     id="defs1">
    <linearGradient
       id="linearGradient5"
       inkscape:collect="always">
      <stop
         style="stop-color:#989898;stop-opacity:1;"
         offset="0"
         id="stop6" />
      <stop
         style="stop-color:#8d8d8d;stop-opacity:1;"
         offset="0.06132074"
         id="stop7" />
      <stop
         style="stop-color:#c9c9c9;stop-opacity:1;"
         offset="1"
         id="stop5" />
    </linearGradient>
    <inkscape:path-effect
       effect="fillet_chamfer"
       id="path-effect5"
       is_visible="true"
       lpeversion="1"
       nodesatellites_param="F,0,0,1,0,0,0,1 @ F,0,0,1,0,0,0,1 @ F,0,0,1,0,0,0,1 @ F,0,0,1,0,0.15725894,0,1 @ F,0,0,1,0,0,0,1 @ F,0,0,1,0,0,0,1 @ F,0,0,1,0,0,0,1 @ F,0,0,1,0,0,0,1 @ F,0,0,1,0,0,0,1"
       radius="0"
       unit="px"
       method="auto"
       mode="F"
       chamfer_steps="1"
       flexible="false"
       use_knot_distance="true"
       apply_no_radius="true"
       apply_with_radius="true"
       only_selected="false"
       hide_knots="false" />
    <linearGradient
       inkscape:collect="always"
       xlink:href="#linearGradient5"
       id="linearGradient6"
       x1="14.965494"
       y1="23.696745"
       x2="20.141405"
       y2="23.680208"
       gradientUnits="userSpaceOnUse" />
  </defs>
  <g
     inkscape:label="Layer 1"
     inkscape:groupmode="layer"
     id="layer1">
    <path
       id="path7"
       style="fill:#000000;stroke-width:0.201307"
       sodipodi:type="inkscape:offset"
       inkscape:radius="0.19001974"
       inkscape:original="M 39.710938 9.3710938 C 39.710938 9.3710938 39.469201 9.3627779 39.400391 9.4355469 C 39.334681 9.5050889 39.34375 9.7382812 39.34375 9.7382812 L 39.427734 20.837891 C 39.427734 20.837891 39.41875 21.077141 39.40625 21.458984 C 39.35624 21.508744 39.309041 21.562985 39.289062 21.613281 C 39.008528 22.319667 39.265774 24.947084 39.365234 26.212891 C 39.486843 27.7604 40.135071 28.899247 41.191406 29.152344 C 42.38242 29.437709 43.731069 28.1898 42.363281 26.384766 C 40.995492 24.579732 41.726329 23.482914 41.773438 22.492188 C 41.796357 22.010061 42.449259 21.898439 43.109375 21.880859 L 43.109375 21.865234 C 43.585608 21.859334 44.049053 21.89813 44.244141 21.875 C 44.713656 21.8193 44.804688 21.566406 44.804688 21.566406 L 44.806641 9.375 L 39.710938 9.3710938 z "
       d="m 39.710937,9.1816406 c -0.0051,-1.796e-4 -0.06773,-0.00234 -0.148437,0.00586 -0.08389,0.00853 -0.18757,-0.00254 -0.300781,0.1171875 -0.108672,0.1150087 -0.09633,0.2101164 -0.103516,0.2910156 -0.0069,0.077749 -0.0041,0.1394812 -0.0039,0.1445313 v 0.00391 c 10e-7,2.3e-5 0,0.00195 0,0.00195 l 0.08398,11.0937502 c -2.5e-4,0.0067 -0.009,0.239005 -0.01953,0.55664 -0.03844,0.04222 -0.07834,0.07818 -0.105469,0.146485 -0.08873,0.22341 -0.120656,0.528145 -0.134765,0.902343 -0.01411,0.374199 -0.0054,0.812795 0.01563,1.267579 0.04196,0.909567 0.132108,1.88524 0.18164,2.515625 0.06258,0.796413 0.260287,1.493933 0.589844,2.037109 0.329557,0.543176 0.798454,0.932722 1.380859,1.072266 0.672347,0.161093 1.390314,-0.107461 1.751953,-0.683594 0.36164,-0.576133 0.331969,-1.441488 -0.382812,-2.384766 -1.325732,-1.749533 -0.603956,-2.690365 -0.552734,-3.767578 0.0037,-0.07814 0.02723,-0.126407 0.07422,-0.175781 0.04699,-0.04937 0.124572,-0.09627 0.230469,-0.134766 0.211794,-0.07699 0.526631,-0.112544 0.847656,-0.121094 a 0.19003874,0.19003874 0 0 0 0.01563,-0.01563 c 0.455535,-0.004 0.884377,0.03945 1.134766,0.0098 0.26674,-0.03164 0.447658,-0.125106 0.558594,-0.220703 0.110935,-0.0956 0.160156,-0.212891 0.160156,-0.212891 a 0.19003874,0.19003874 0 0 0 0.0098,-0.06445 L 44.996094,9.375 A 0.19003874,0.19003874 0 0 0 44.806641,9.1855469 l -5.089844,-0.00391 z"
       transform="matrix(1.1643746,0,0,1.1643746,-38.863002,7.2100094)"
       inkscape:export-filename="knife.png"
       inkscape:export-xdpi="96"
       inkscape:export-ydpi="96" />
    <g
       id="g7"
       transform="matrix(1.1643746,0,0,1.1643746,-10.125894,-1.380431)">
      <path
         style="fill:url(#linearGradient6);fill-opacity:1;stroke-width:0.201307;-inkscape-stroke:none"
         d="m 14.747145,28.216047 -0.08483,-11.100888 c 0,0 -0.0085,-0.232236 0.05721,-0.301778 0.06881,-0.07277 0.310561,-0.06384 0.310561,-0.06384 l 5.09574,0.0032 -0.002,12.191724 c 0,0 -0.09178,0.252288 -0.561295,0.307984 -0.469512,0.0557 -2.48476,-0.26138 -2.524623,0.602906 -0.04549,0.986174 -0.751561,2.077797 0.569214,3.874539 1.320775,1.796742 0.01927,3.0391 -1.130807,2.755046 -1.020027,-0.251934 -1.646598,-1.386737 -1.764027,-2.927137 -0.117429,-1.5404 0.03482,-5.341721 0.03482,-5.341721 z"
         id="path1"
         sodipodi:nodetypes="ccsccczszszcc" />
      <path
         d="m 19.892415,28.946126 c 0.09442,0.0079 0.174281,0.01553 0.218259,0.0025 0.01343,0.03138 0.01253,-0.300388 0.01253,-0.300388 l 0.0024,-11.817411 c 0,0 -0.04812,0.0756 -0.08856,0.180974 -0.04044,0.105377 -0.252773,0.675203 -0.156331,1.524215 0.142274,1.225297 -0.109997,2.134869 -0.05503,2.91127 0.03968,0.56043 0.124383,1.406781 0.140037,1.975363 0.02007,0.729018 -0.132351,1.577405 -0.126536,2.305042 0.0082,1.02967 0.148695,1.582629 0.01905,2.648888 -0.02025,0.245573 -0.0039,0.433381 0.03415,0.569527 z"
         style="fill:#ececec;fill-opacity:0.451786;stroke-width:0.124325"
         id="path3"
         sodipodi:nodetypes="cccczcsssccc" />
      <path
         d="m 18.322566,29.268571 -9.98e-4,-0.217906 c 0.0013,-0.120549 -0.07458,-0.158867 -0.18427,-0.196543 0,0 -2.376556,-0.732535 -3.304833,-0.08504 -0.07057,0.04923 -0.168146,0.153615 -0.19915,0.234089 -0.270891,0.703141 -0.02311,3.317288 0.07293,4.57728 0.117429,1.5404 0.743689,2.675019 1.763716,2.926953 1.150077,0.284054 2.451972,-0.958129 1.131197,-2.754871 -1.320775,-1.796742 -0.614964,-2.888525 -0.569474,-3.874699 0.02213,-0.479912 0.65345,-0.591766 1.290877,-0.609265 z"
         style="fill:#5a3e25;stroke-width:0.201307;fill-opacity:1"
         id="path4"
         sodipodi:nodetypes="cccsssscscc"
         transform="matrix(1.0355952,0,0,1.004615,-0.54567571,-0.14499779)" />
      <circle
         style="fill:#d2d2d2;stroke-width:0.201307;-inkscape-stroke:none;fill-opacity:1"
         id="path5"
         cx="16.721315"
         cy="34.96579"
         r="0.40171325" />
    </g>
  </g>
</svg>
